#!OML:ASF F:\VICON\USERDATA\INSTALL\rory3\rory3.ASF
:FULLY-SPECIFIED
:DEGREES
39
root 0.11026286226258192 17.905223974171665 21.08972694340715 -2.74856811465863 -0.6862521353427595 -2.0060269990745176
lfemur -6.986771602525048 -7.202397526767562 -14.018306492410822
ltibia 37.168814054245146
lfoot 5.59747335742279 -5.624315752910145
ltoes -14.549796981953266
rfemur -19.293121162657098 4.940060081344895 23.91311203352041
rtibia 15.563352018008967
rfoot -5.442588959516899 -5.231988759624915
rtoes 9.911421625064536
lowerback nan -0.6449456879278287 0.5087362519807167
upperback 0.9097328343875071 1.1789502182968743 3.1996330625341995
thorax -4.429281269399114 -0.1641050009016516 2.937558897056823
lowerneck -16.137177047850244 -2.3958725335089026 -1.7621814748932585
upperneck 20.65462025980097 -3.0498388453434386 0.18722483836163994
head 9.074042131727985 -1.683113036078905 -0.12634448018698055
lclavicle 2.8704933481155046e-14 -3.739385731505998e-14
lhumerus -25.880727298189655 -3.4803179819304866 84.68940077579133
lradius 34.24353507811403
lwrist 9.347438444958073
lhand -27.154925023481635 29.261758200381458
lfingers nan
lthumb -0.7019328268154924 59.09079621168157
rclavicle 2.864649371628175e-14 -3.774151937553979e-14
rhumerus -27.685399907681752 -15.96582974349037 -79.16032238416662
rradius 25.948512292771593
rwrist 4.699387550594456
rhand -16.48646043821478 nan
rfingers nan
rthumb 9.70765939802469 -4.774536736552834
40
root 0.04263348167879616 17.989200054633532 21.74018069527834 -2.9476343500834172 -0.9358108064848318 -3.7176883396079727
lfemur -11.603636341725412 -6.682304701465824 -11.587255562078138
ltibia 46.223928929929556
lfoot 10.738553184680871 -9.773028226030217
ltoes -7.857303012193359
rfemur -16.619638784438603 5.4627770004943805 26.644164076844305
rtibia 14.626748801134447
rfoot -3.8277445680748787 -6.371515512117698
rtoes 13.094638038743325
lowerback nan -0.37124984845977493 1.970209115843883
upperback 0.9124867790035252 1.6879755415149233 3.5851392210091175
thorax -4.470129679700643 0.03498366225310656 2.3732333092054687
lowerneck -16.10862562318107 -2.470895249601016 -1.6745710882722693
upperneck 20.61532048098097 -3.280570803777781 0.3428228051274094
head 9.056003007766725 -1.7465336077076947 -0.109557575312558
lclavicle -1.0375326430065368e-14 3.647657449057818e-14
lhumerus -27.040499282725158 -4.4774638762370955 85.4129781736986
lradius 32.81639538219757
lwrist 10.56017136066686
lhand -23.809533885134805 21.401415503764103
lfingers nan
lthumb 2.4907892520264188 51.14783168594593
rclavicle -1.2435976307214339e-14 3.470384389279872e-14
rhumerus -27.175638469243687 -14.989618397244639 -79.6051536647808
rradius 25.993338846118114
rwrist 4.920507052686835
rhand -18.178842165588865 nan
rfingers nan
rthumb 8.072260114394965 -4.499996838803966
41
root -0.018692703356140705 18.021287806269566 21.896783987908613 -3.4265453737481426 -0.9535674356799106 -4.268855924590275
lfemur -16.10726858905914 -6.164685174881483 -10.407367348313254
ltibia 53.625888578542266
lfoot 8.093497930083547 -7.652705732736902
ltoes -13.42791017001511
rfemur -14.281181485859827 6.672779878128221 27.717573167667233
rtibia 14.869956369635876
rfoot -3.7098188378525974 -7.9715101002997235
rtoes 19.66256900765213
lowerback nan -0.06316128382095076 2.3954637939763503
upperback 1.012744463248727 1.987966650530009 3.3286389557939557
thorax -4.417673908573717 0.21316516501824517 1.932271567773911
lowerneck -15.418857369335928 -2.5645981308299914 -1.74530929861884
upperneck 20.504018896335094 -3.538657975330843 0.6614331070889479
head 8.94378994074972 -1.8156759146513735 -0.009202745893531872
lclavicle 3.724432455225494e-15 -9.165042496963534e-15
lhumerus -27.48233452130565 -5.437170475043794 85.76869349551272
lradius 31.918713852580947
lwrist 7.460829581150254
lhand -30.40862037629469 18.33586411571995
lfingers nan
lthumb -3.970093690223572 47.96869594055566
rclavicle 2.529467952764103e-15 -1.0572957657806779e-14
rhumerus -26.277540903503038 -15.27625605351927 -79.88221996946908
rradius 25.175929900695735
rwrist 6.322939358228509
rhand -16.91741939859108 nan
rfingers nan
rthumb 9.315076580681326 -6.11834600419763
42
root -0.07934078237352254 18.038984402895558 22.453522020034683 -3.634761736516225 -0.7219168141037289 -4.5477342268973295
lfemur -19.94407564361524 -5.886990167542084 -9.223183103284532
ltibia 58.48595854583161
lfoot -0.9596531963660766 -5.677433683420985
ltoes -4.4265493978975305
rfemur -12.338447660538668 7.583936893965781 28.62344702218482
rtibia 15.451572753166904
rfoot -5.79719133305681 -10.289556282330294
rtoes 17.936592126499733
lowerback nan 0.0705559977607837 2.6952263668674115
upperback 0.844048488856378 2.146493011940864 3.1074440967799584
thorax -4.76679360716612 0.2787240666613713 1.5952671450552507
lowerneck -15.274219610352711 -2.644589597711301 -1.8586706992023558
upperneck 20.708808776935157 -3.7059096477854006 0.848253297329829
head 9.025049580415693 -1.8649339452937717 0.05668507416219498
lclavicle -6.573797481598187e-16 -1.4803343985068644e-14
lhumerus -28.977091900414035 -4.7769576575726935 85.74539787671259
lradius 31.50251686208117
lwrist 5.333749585071782
lhand -28.10667718170458 23.128182194189318
lfingers nan
lthumb -1.7218890590119704 52.816587427225556
rclavicle -2.2120145633725817e-15 -1.666949462159619e-14
rhumerus -25.55805462732054 -14.73184663582924 -80.53233932635338
rradius 25.26522261141345
rwrist 7.124265872117807
rhand -17.710049280816552 nan
rfingers nan
rthumb 8.557991252745097 -6.903346510737792
43
root -0.11526576768288982 18.04181996064404 22.858056787320688 -3.8349463144432048 -0.7861574906238364 -4.772671475333722
lfemur -22.902648965669464 -5.857019212996308 -8.48898819172379
ltibia 60.15568668316632
lfoot -4.628214608533267 -4.848229272208352
ltoes -0.7991912017489593
rfemur -9.966764069651166 7.7729644302545005 29.19555661353841
rtibia 15.693801468549985
rfoot -7.754807037172726 -11.779771429507441
rtoes 19.069110217693208
lowerback nan 0.28556130425711557 2.8853355561761527
upperback 1.232427194410218 2.3577766813149412 2.8016631652822417
thorax -4.099519358017028 0.39818812739718423 1.072176007716787
lowerneck -15.333407751451938 -2.667025752163998 -1.633390151981723
upperneck 20.55965163039474 -3.759813585316615 0.715851363266481
head 8.967437596760126 -1.8789910819713627 -0.011227779308750935
lclavicle 3.5519521215383293e-15 3.938056038790522e-14
lhumerus -29.066743031391486 -3.6754617780387004 85.52180658789423
lradius 30.5849863913961
lwrist 4.684283072017891
lhand -28.37884077731939 24.161056455946003
lfingers nan
lthumb -1.962894512238652 53.85641884501797
rclavicle 1.4801299563442125e-15 3.7522091666349345e-14
rhumerus -24.30754772045027 -13.343410910192194 -81.70245444621862
rradius 25.900351753569332
rwrist 5.267034385811166
rhand -17.93918298114312 nan
rfingers nan
rthumb 8.318525246465814 -5.943706541940329
44
root -0.14228375752353267 18.022915468060894 23.56873081449988 -3.713740824513282 -1.1560740430587793 -5.004948452874608
lfemur -25.606179726081056 -5.86981908941896 -7.810871044771675
ltibia 59.13673890012757
lfoot -7.958118849302338 -3.377025279905406
ltoes -1.0264418673649573
rfemur -8.15889699423214 7.268814002939772 29.620378147030834
rtibia 16.29022703755369
rfoot -9.939161384198854 -12.28457152189675
rtoes 18.67561142706279
lowerback nan 0.5673537136398557 3.2292081948649365
upperback 1.0492406354436363 2.684413796056421 2.5898519700960536
thorax -4.277499712737427 0.6295901998673428 0.7364646271085122
lowerneck -15.212585773597224 -2.6570113843792202 -1.670403511022547
upperneck 20.65738274064808 -3.7452606469358254 0.7342838843528254
head 8.99613854338108 -1.8688136992997588 0.009373826921630857
lclavicle 1.1324791585310026e-14 -1.6336732021219315e-16
lhumerus -30.367676225139355 -2.337310420398765 85.25158300846587
lradius 30.085518221056223
lwrist 6.136798536860898
lhand -24.787381358583676 31.888003010616536
lfingers nan
lthumb 1.4643287624935903 61.475758361949545
rclavicle 1.0164628353263895e-14 -9.158627362393746e-16
rhumerus -24.097205859724326 -10.813364212824144 -82.69394501778598
rradius 27.28526576048076
rwrist 2.7067063001265756
rhand -17.862592673256184 nan
rfingers nan
rthumb 8.43718497132108 -11.279534475572365
45
root -0.15996969669023237 17.973469476293996 23.929719191801674 -3.8387304227674433 -2.2597237459621957 -5.625920294833282
lfemur -26.723737104358293 -5.200586159914048 -7.050762826123931
ltibia 55.605703172660796
lfoot -11.247395626571386 -0.888524279397613
ltoes -2.345595503683438
rfemur -6.076056441954174 7.582108963176305 30.43181476502921
rtibia 16.89623822217032
rfoot -11.547053513947393 -12.725462283111014
rtoes 19.90561328759275
lowerback nan 1.0268708662234591 3.765272016139206
upperback 1.1929110641653298 3.3406113419374623 2.4290877171136698
thorax -4.2276914089385755 1.0132624128331194 0.17622514020624802
lowerneck -15.25264901918717 -2.682293569546033 -1.6961350640621804
upperneck 20.502648828203675 -3.823263903301747 0.9532513123633616
head 8.93060971691974 -1.8791741602732146 0.08656379983720813
lclavicle -5.811848597010663e-15 -7.980984028904374e-16
lhumerus -31.18734997001835 -1.7366508677273667 85.12171871616017
lradius 30.028317099214522
lwrist 7.076491934232962
lhand -25.036550221890934 29.019964266074066
lfingers nan
lthumb 1.2456404564398211 58.72442976034587
rclavicle -7.113027019302311e-15 -1.5786238638520684e-15
rhumerus -23.411536199214122 -9.36333837724846 -83.39414705995159
rradius 28.170533932077817
rwrist 1.9467729980426967
rhand -18.97398532482624 nan
rfingers nan
rthumb 7.3498293719572345 -8.65117878550848
46
root -0.1641186810674728 17.91486634801846 25.476799321699232 -3.3426006445282326 -2.846185975087317 -6.052897854421604
lfemur -27.907635979565296 -5.159281897714061 -6.264718224860426
ltibia 49.92064705162592
lfoot -12.840364581121413 1.5717143581940205
ltoes -1.274320537895147
rfemur -4.66910365470193 7.528630027489214 31.167286871014834
rtibia 17.21179121856194
rfoot -12.572335757207068 -13.97631940347203
rtoes 17.821290469993812
lowerback nan 1.2642000243155855 4.587917879775224
upperback 1.0403272351448947 3.681590951324999 2.2208146371157955
thorax -4.29109551255345 1.282981254659411 -0.5437306832274035
lowerneck -15.174767472497098 -2.6191946665202157 -1.480997732073742
upperneck 20.438337102006358 -3.7399942201996335 0.867321874168653
head 8.896466174255332 -1.838794770159969 0.04988576163166196
lclavicle 1.0864837006505175e-14 -8.678390417153118e-15
lhumerus -31.960008168457755 -0.8690709092279685 84.83832059523462
lradius 29.522565401707276
lwrist 6.788628782652336
lhand -25.087358343942782 30.157641631152057
lfingers nan
lthumb 1.1744159047085323 59.87367335065688
rclavicle 9.410725839204613e-15 -9.751583128851649e-15
rhumerus -23.345045013254186 -7.635211009102434 -83.87501188804391
rradius 29.434811527145513
rwrist 0.3883347662688008
rhand -19.56676344934056 nan
rfingers nan
rthumb 6.761371157012321 -6.380359691883182
